<?xml version="1.0" standalone="no"?>
<!DOCTYPE svg PUBLIC "-//W3C//DTD SVG 20010904//EN"
 "http://www.w3.org/TR/2001/REC-SVG-20010904/DTD/svg10.dtd">
<svg version="1.0" xmlns="http://www.w3.org/2000/svg"
 width="512.000000pt" height="512.000000pt" viewBox="0 0 512.000000 512.000000"
 preserveAspectRatio="xMidYMid meet">
<metadata>
Created by potrace 1.14, written by Peter Selinger 2001-2017
</metadata>
<g transform="translate(0.000000,512.000000) scale(0.100000,-0.100000)"
fill="#000000" stroke="none">
<path d="M2350 4890 c-127 -26 -190 -51 -402 -154 -106 -52 -227 -110 -268
-129 -89 -41 -240 -113 -405 -192 -66 -32 -169 -81 -230 -110 -60 -29 -158
-75 -217 -104 -60 -28 -156 -74 -215 -102 -206 -98 -244 -118 -302 -163 -121
-94 -210 -214 -262 -357 -37 -100 -40 -119 -44 -246 -6 -193 44 -349 158 -498
107 -141 164 -177 587 -378 147 -69 283 -133 365 -172 39 -18 155 -74 259
-124 104 -50 190 -91 192 -91 2 0 301 -144 494 -238 110 -54 238 -95 337 -109
32 -4 121 -7 198 -6 202 2 279 24 564 162 124 60 264 127 311 149 47 22 170
81 274 131 103 50 190 91 191 91 1 0 85 40 186 89 403 194 543 260 560 264 9
1 12 -243 13 -903 l1 -905 32 -51 c93 -144 297 -133 373 20 19 40 20 57 20
1321 0 841 -4 1302 -10 1344 -36 217 -172 426 -357 545 -39 25 -74 46 -77 46
-2 0 -71 32 -153 71 -81 39 -184 88 -228 109 -44 21 -136 65 -205 98 -164 78
-530 252 -650 309 -52 25 -180 87 -285 138 -195 95 -274 125 -405 149 -104 20
-295 18 -400 -4z"/>
<path d="M855 1583 c2 -192 5 -359 9 -373 3 -13 8 -42 12 -65 7 -52 49 -174
84 -247 108 -223 284 -396 514 -503 123 -58 406 -129 601 -151 33 -3 74 -8 90
-10 176 -24 678 -24 800 0 11 2 49 7 85 11 36 4 74 9 85 11 11 2 32 6 48 9 61
12 176 37 232 51 33 9 67 17 75 19 42 9 124 41 195 78 298 155 504 433 566
767 15 82 21 750 7 750 -6 0 -27 -9 -47 -20 -20 -10 -99 -49 -176 -86 -271
-129 -351 -167 -430 -204 -44 -21 -168 -80 -275 -132 -226 -110 -278 -131
-415 -163 -207 -49 -453 -52 -662 -9 -87 18 -194 49 -240 70 -17 8 -34 14 -37
14 -4 0 -115 53 -249 119 -133 65 -267 130 -297 144 -30 14 -118 55 -195 92
-240 116 -367 175 -375 175 -4 0 -6 -156 -5 -347z"/>
</g>
</svg>
